# xmcd CD database file
#
# Track frame offsets:
#	150
#	6030
#	63705
#	248584
#
# Disc length: 4189 seconds
#
# Revision: 0
# Processed by: cddbd v1.5.2PL0 Copyright (c) Steve Scherf et al.
# Submitted via: CDex 1.51
#
DISCID=2a105b04
DTITLE=Master Choa Kok Sui - Méditations des coeurs jumeaux
DYEAR=1900
DGENRE=New Age
TTITLE0=Introduction
TTITLE1=Exercices physiques
TTITLE2=Méditation des coeurs jumeaux
TTITLE3=Epilogue
EXTD=
EXTT0=
EXTT1=
EXTT2=
EXTT3=
PLAYORDER=
